<svg width="406" height="212" viewBox="0 0 406 212" fill="none" xmlns="http://www.w3.org/2000/svg">
<path d="M308.48 211.2C288 211.2 269.653 205.013 253.44 192.64C237.653 179.84 221.44 161.92 204.8 138.88C189.44 161.493 173.44 179.2 156.8 192C140.587 204.8 118.827 211.2 91.52 211.2C64.64 211.2 42.6667 202.453 25.6 184.96C8.53333 167.04 4.76837e-07 140.587 4.76837e-07 105.6C4.76837e-07 70.6133 8.53333 44.3733 25.6 26.88C42.6667 8.95998 64.64 -1.52588e-05 91.52 -1.52588e-05C118.4 -1.52588e-05 139.947 5.97332 156.16 17.92C172.8 29.8666 188.587 46.5067 203.52 67.84C218.88 46.5067 234.453 29.8666 250.24 17.92C266.453 5.97332 285.867 -1.52588e-05 308.48 -1.52588e-05C339.2 -1.52588e-05 363.093 8.95998 380.16 26.88C397.227 44.3733 405.76 70.6133 405.76 105.6C405.76 140.16 397.013 166.4 379.52 184.32C362.453 202.24 338.773 211.2 308.48 211.2ZM96 169.6C112.64 169.6 127.147 164.053 139.52 152.96C152.32 141.44 165.76 125.013 179.84 103.68C165.76 83.6267 151.893 68.2667 138.24 57.6C125.013 46.9333 110.293 41.6 94.08 41.6C61.6533 41.6 45.44 62.9333 45.44 105.6C45.44 148.267 62.2933 169.6 96 169.6ZM309.76 41.6C293.547 41.6 279.253 46.9333 266.88 57.6C254.933 68.2667 242.133 83.84 228.48 104.32C242.56 125.653 255.787 141.867 268.16 152.96C280.533 164.053 295.04 169.6 311.68 169.6C344.107 169.6 360.32 148.267 360.32 105.6C360.32 62.9333 343.467 41.6 309.76 41.6Z" fill="black"/>
</svg>
